<svg xmlns="http://www.w3.org/2000/svg" width="1286.67" height="606.74" viewBox="0 0 1286.67 606.74">
    <title>d&amp;amp;d</title>
    <path fill="#fff" d="M13.23,534.38q10.23-6.06,20.47-12.11c10.32-6.1,20.49-12.46,31-18.21,12.85-7,18.68-18,19.38-32.14.3-6.15.56-12.32.56-18.48q.06-127.72,0-255.45a197.24,197.24,0,0,0-1.46-22.91c-1.28-11-6.76-19.64-15.69-26.2-18.52-13.61-35.17-29.07-47.71-48.57C10.46,85.9,3.39,70.59.61,53.53.22,51.16.2,48.73,0,46.12c8.75,4.56,16.81,9.18,25.22,13.06C48.28,69.84,73.1,71.89,97.94,72.26c56.63.84,113.29.58,169.92,1.5,31.05.5,61.79,4.37,91.12,15.48,63.67,24.12,108.15,67.65,132.67,131.41,1.78,4.65,1,6.56-3.39,8.64-23.07,11-43.48,25.71-60.68,44.82-6.54,7.27-13.89,13.82-20.35,21.72l60.34-12.13.46,1.23c-3.73,3.93-7.51,7.82-11.19,11.81-24.58,26.66-38.66,57.81-40.73,94.28-.78,13.79-2.45,27.53-3.68,41.3-.12,1.39,0,2.8,0,5.36,4.66-6.44,8.7-12,12.75-17.61l.84.21a73.54,73.54,0,0,0-.8,8.46c.22,15.46.46,30.92,1,46.36.12,3.15-.37,5.12-2.93,7.17-35,28.11-74.7,45.29-119.44,50a507.67,507.67,0,0,1-50.82,2.9c-78.82.29-157.64.13-236.46.13h-3Zm200.2-110.19c26-1.11,51.59-.35,76.66-3.75,32.62-4.44,56.81-22.84,70.15-53.54,14.46-33.3,15.39-68.06,7.28-102.83-11.48-49.2-44.7-75.88-95.37-77.87-18.29-.72-36.62-.43-54.94-.56a26.73,26.73,0,0,0-3.78.51Z" />
    <path fill="#fff" d="M1039.42,534.53c24.07-40,18.83-76.74-13.41-111.38,2.18,0,3.84.11,5.48,0,14.74-1.11,29.81-.66,44.15-3.69,35.42-7.5,58.66-29.76,69.34-64.14s10.73-69.4-.83-103.68c-13.6-40.34-43.13-61.6-84.83-65-21.49-1.74-43.24-.3-65.35-.3-.2,1.63-.47,3.71-.78,6.17-34.91-3.83-68.9-1.4-101.24,15l12.9-14.62c-.17-.34-.33-.69-.49-1l-40.17,19.61c0-10.63.36-20.74-.09-30.82-.6-13.54-6.26-24.47-17.52-32.62-23-16.62-42.2-36.66-55-62.3-7-14-11.5-29.67-11.09-39.8a27.42,27.42,0,0,1,2.66,1.34c22.78,15.16,48.11,22.56,75.2,23.92,22.11,1.11,44.26,2,66.4,2.15,41.48.39,83-.29,124.46.43,56.87,1,109.6,15.32,154.67,51.82,43.38,35.14,69.57,80.67,79,135.44,9.67,56.5,1.48,110.57-26.8,160.81-25.53,45.38-64.52,75.55-111.91,95.42-29.26,12.28-60.18,16.6-91.7,17.38-4.15.1-8.31.26-12.46.37C1039.81,535,1039.7,534.8,1039.42,534.53ZM993.28,287.68c-11.16,2.43-19.3,9.16-26.68,16.55-6.1-3.94-11.4-8.58-17.56-11.12-20-8.23-38.94-4.65-56.31,7.34-11.59,8-18.83,20.09-27.09,31.14-.69.93-.71,2.53-.71,3.81,0,28.82-.08,57.64.1,86.46a7.21,7.21,0,0,0,2.86,5.08c6.15,4.14,13.18,4.18,17.77.61,5.13-4,6.8-10.8,4.21-18.14-3.1-8.78-6.38-17.5-9.55-26.25-1.5-4.16-2.94-8.34-4.4-12.51l1-.94c14.06,8.73,28.08,17.52,42.22,26.1a15.27,15.27,0,0,0,7.56,2.47c12.8-.14,25.63-1.48,38.37-.86,9.33.45,18.55,3.28,28.23,5.12ZM964.69,449.49c-1.16-10.18-11.12-20.38-20.19-20.66V473.4C957.81,469.71,965.92,460.35,964.69,449.49Z" />
    <path fill="#ff5555" d="M485.36,560.69a141,141,0,0,1-31.17-43.1c-14.1-30.26-17.09-62.13-12.45-94.72,1.94-13.6,6.11-26.88,9.22-40.31a46,46,0,0,0,1.5-8.32c.18-4.56-2.51-6.41-6.36-3.93-4.53,2.91-8.44,6.78-12.47,10.12-3.66-22.34,27.73-74.26,57.82-94.32.67,2.12,1.76,4,1.71,5.82-.09,3.64-.84,7.26-1.28,10.89q-3.66,30.18-7.3,60.35l1.79.68c10.41-11.26,20.46-22.87,31.33-33.66s24.27-18.53,38-25.68c-2.64,14.5-5.24,28.75-8.08,44.28,10.44-7.19,19.73-13.6,29-20,8.81-6.05,18.37-6.95,29-4.13-4.71,5.65-9.33,10.84-13.56,16.33-15.62,20.28-26.44,42.74-29.4,68.41-2.67,23.22,1,45.27,14.77,64.72,21.16,29.82,58.22,37.09,90.87,18,22.49-13.16,39.52-31.89,53.63-53.5.81-1.26,1.58-2.54,2.57-4.12a13.72,13.72,0,0,1,2,1.15C742.22,448.76,757.89,462,773.7,475c3.47,2.86,4.07,5.16,1.74,9.48-13.45,25-29.26,48.14-50.36,67.28-39.74,36.06-86.58,50.33-139.37,42.1-35.91-5.61-66.26-22.53-88.82-51.88-1.83-2.38-3.48-5-5.74-6.89-1.71-1.41-4.72-3-6.32-2.33s-3.56,3.85-3.5,5.87c.18,5.26,1.31,10.49,2.19,15.72A65.53,65.53,0,0,0,485.36,560.69ZM674.2,334.28a121.64,121.64,0,0,0,14.58,12.11c9.55,6.89,15,15.72,15.12,27.74.2,17.13,8.72,29.95,21.49,40.52,19.63,16.25,39.28,32.48,58.76,48.91,9.56,8.07,15.59,18.44,16.07,31.06.44,11.45-.16,23-.6,34.41-1,26.92,13.18,50,37.55,60.53,1.65.71,3.39,1.22,6.17,2.22-18.09-22.22-11.89-51.58,1-62,.28,1.85.46,3.44.76,5,6.07,32.62,23.09,56.95,55.41,67.17,33.84,10.7,65.09,2.59,93.36-18,3.51-2.55,6.27-6.13,10.18-10-26.08,3.38-52.86-2.84-59.88-13.38,25.92,1.77,44.21-2.71,62.59-15.3,23.82-16.32,36-44.8,30.89-71-8-41.19-50.79-65.27-86.8-61.72,5.23,3.48,11.6,6.79,16.85,11.38,18.2,15.92,16.52,42.95-3.21,56.89-11.89,8.39-25.44,11.21-39.7,11.26-3.45,0-6.91-.64-11.2-1.08,28.95-24.73,15.17-74.75-8.15-85.05.35,2.13.76,4.24,1,6.37,2.2,16.52-9.75,32-26.31,33.4-10.54.9-19.38-3.63-27.34-10.21C830,416.68,807,397.92,784.21,379c-7.69-6.39-16.17-10.41-26.23-10.89-4.32-.21-8.64-.54-13-.81-8.71-.53-12.27-3.36-14.41-11.78-1-3.7-1.68-7.46-2.37-11.23-1.67-9.15-7.3-14.34-16.22-16-4.73-.88-9.56-1.34-14.36-1.79-16.68-1.59-24.25-7.56-29-23.07A27.48,27.48,0,0,0,674.2,334.28ZM454.87,270.09l2.82-.43c10.54-1.72,21.12-3.11,31.74-.73,14.51,3.26,21.35,13.18,19.14,27.87-1.19,7.87-2.77,15.67-4.27,24.05,21.83-19,45.71-33.49,73-42.61l-25.79-4.58c16.18-22.11,64.85-31.2,82.15-24.72-21.54,1.63-46.42,9.73-52.92,17.28l27.57,7c-22.36,14.06-36.89,29.87-37.71,40.67,12.72-6.2,21.81-7.68,34.3-5.58,15.14,2.55,26.3,12.75,28.06,26,1.69,12.71-2.25,23.65-11,32.89l-2.8,3,.5,1.23,21.51-2.82c-3.8,9.17-10.62,15.34-18.44,21.29,23.62-.51,51-17.87,52.85-30.62-1.36.2-2.66.4-4,.58-10.72,1.53-15.18-2.67-13.86-13.45.68-5.58,1.94-11.09,3-16.94-1.18.88-2.17,1.67-3.21,2.39-6.08,4.26-11.25,2-11.8-5.37a28.45,28.45,0,0,1,1.1-9.83c1.73-6,4-11.82,6.39-18.59l-27.36-3.69a15.78,15.78,0,0,1,2.65-1c11.46-2,22.86-4.64,34.41-5.66,9.2-.82,18.63-.13,27.86.81,7.9.81,10.41,4.92,8.33,12.56-1.32,4.89-3.61,9.52-5.61,14.62a25.19,25.19,0,0,1,3.25,0c9.2,1.2,18.62,1.57,27.54,3.88,11,2.84,16.14,11.06,16,22.46,0,2.87-.45,5.73-.7,8.7,22.27-10.22,37.41-48.47,31.71-68.48-4.64,7.22-10.12,13.4-19.07,16.25.42-9.77-5.42-14.3-12.74-17.38.22-3,.57-5.65.58-8.3.06-15.32-5.51-28.92-14.9-40.47-9-11.06-19.38-21-29.35-31.26-11-11.34-22.7-22.06-33.28-33.79-9.57-10.61-16.36-23.08-18.95-37.42-.62-3.46-.78-7-1.15-10.51-6.68,11.16-8.49,23.07-7.62,35.59.48,7,2.82,12.81,8.18,17.53,6.38,5.61,12.71,11.31,18.66,17.36,10.83,11,21.74,22,31.87,33.7,4.66,5.35,7.55,12.23,11.24,18.42-5.65-5.42-10-11.74-15.39-17-12.24-12-25.15-23.34-37.46-35.29-9.07-8.81-18.13-17.72-26.27-27.36-11.83-14-19.34-30.11-18.86-49.11-.79.2-1.22.17-1.37.37a13.89,13.89,0,0,0-1.65,2.48,101.85,101.85,0,0,0-6.24,69.17c.42,1.66,2.33,3,3.7,4.36,7.33,7.19,15.1,14,21.9,21.64,3.41,3.85,5.06,9.25,7.51,14l-1.19.71c-7.13-11.88-18.08-19.43-29.54-26.34-9.12-5.51-18.43-10.69-27.55-16.2-14.72-8.88-27.91-19.37-35.82-35.22-.08-.16-.58-.12-1.12-.21-3.73,15.11-1.57,29.45,5.87,43.3-8-1.13-15.38-2.58-22.8-3.1s-14.85-.11-22.72-.11c1.95,1.32,3.49,2.3,5,3.39,8.08,6,15.5,12.68,20.43,21.62,4.08,7.39,3.16,11.86-3.5,16.87a99.67,99.67,0,0,1-10.91,7c-10.59,6-21.43,11.49-31.83,17.75-7.19,4.32-13.82,9.57-20.7,14.41Zm246.49,2.79c-13,1.76-24.36-9.32-27.84-28.41C687,250.08,695.89,259.63,701.36,272.88ZM579.72,144.34c1.56-16.71,9.21-32.25,9.58-49.22a12.66,12.66,0,0,1,.92-3.36c6.36-20.59,24.44-34.58,44.19-34.19,21.06.41,36.9,13.23,42.48,34.89,4.8,18.64,2.39,36.7-5.88,53.94-1.46,3.06-1.14,4.95.79,7.51,14.3,19,33.18,33.4,50.41,50.5,4.22-6.85,8.47-13,12-19.58,14.69-27.31,24.47-55.87,19.85-87.51-6-41.12-27.46-70.82-66.24-86.9C660.94-.72,632.88-1.94,604.38,2.16c-55.11,7.93-112.1,57.75-99.22,136a75.54,75.54,0,0,0,12.71,32c-2.2-24.43,9.87-45.28,15.9-67.72a15.54,15.54,0,0,1,2.6,4.38q6.86,16.34,13.7,32.67c5.56,13.24,16.16,21.53,28.26,29C578.8,159.91,579,152.1,579.72,144.34Zm479.06,119.85c-7.31-6.38-14.66-12.87-22.71-18.31-19.34-13.08-40.45-21.6-64.12-22.57-14.87-.6-29.08,2.67-43,7.42a52.33,52.33,0,0,1-11.1,2.72c-4.43.48-6.71-2.78-4.62-6.71a25.29,25.29,0,0,1,6.36-7.5c4.24-3.4,8.92-6.25,14-9.73-1.41.06-2.17,0-2.92.14-14.62,2.19-26.9,9.37-38.36,18.18-8.32,6.39-16.45,13-24.74,19.44a14.4,14.4,0,0,1-5.25,2.75c-1.62.38-4.06.37-5.06-.59s-1.15-3.52-.6-5a78.74,78.74,0,0,1,5-10.27c1.34-2.42,3-4.66,5.28-8.13-29.14,16.38-64.11,61.24-68.35,86.56C834.15,276,876,252.83,928.33,252.27c-67.64,9.92-113.23,52.42-154.05,103.35,17.48,6.18,28.35,20.05,42.55,29.6.86-1.78,1.65-3.42,2.43-5.07A403.72,403.72,0,0,1,869,301.39c22-27.39,66.23-37.8,95.88-17.72C994.05,266.77,1025.19,260.86,1058.78,264.19Zm-65.67-66.32-22.36,8.42.3,1.12,22.06,2.73Z" />
</svg>